# xmcd
#
# Track frame offsets:
#	150
#	8880
#	22767
#	36449
#	53357
#	62687
#	75127
#	90988
#	104051
#	116992
#	128626
#	136988
#	147685
#	168578
#	178899
#	192425
#	205857
#	215368
#	225143
#	236741
#	245065
#
# Disc length: 3396 seconds
#
# Revision: 0
# Processed by: cddbd v1.5.2PL0 Copyright (c) Steve Scherf et al.
# Submitted via: FairStars CD Ripper 1.90
#
DISCID=200d4215
DTITLE=Reader's Digest - Various Artists - God's Country - Disc 2
DYEAR=1998
DGENRE=Gospel
TTITLE0=There Is Powre In The Blood
TTITLE1=Have Thine Own Way, Lord
TTITLE2=Family Bible
TTITLE3=The Old Rugged Cross
TTITLE4=When The Roll Is Called Up Yonder
TTITLE5=In The Garden
TTITLE6=Were You There (When They Crucified Our Lord)
TTITLE7=(What Would You Do) If Jesus Came To Your House
TTITLE8=Precious Memories
TTITLE9=These Hands
TTITLE10=Swing Low, Sweet Chariot
TTITLE11=Down By The River Side
TTITLE12=Kneel At The Cross
TTITLE13=Since Jesus Came Into My Heart
TTITLE14=(You've Got Tlo Walk That) Lonesome Valley
TTITLE15=This Ole House
TTITLE16=Are You Walkinng and A-Talking For The Lord
TTITLE17=When The Saints Go Marching
TTITLE18=Jesus Is A Soul Man
TTITLE19=That Old Time Religion
TTITLE20=I'll Fly Away
EXTD=
EXTT0=
EXTT1=
EXTT2=
EXTT3=
EXTT4=
EXTT5=
EXTT6=
EXTT7=
EXTT8=
EXTT9=
EXTT10=
EXTT11=
EXTT12=
EXTT13=
EXTT14=
EXTT15=
EXTT16=
EXTT17=
EXTT18=
EXTT19=
EXTT20=
PLAYORDER=
